<svg width="100" height="100" viewBox="0 0 100 100" fill="none" xmlns="http://www.w3.org/2000/svg">
<circle cx="50" cy="50" r="50" fill="#EC3237"/>
<path fill-rule="evenodd" clip-rule="evenodd" d="M27.7995 38.1016C27.4601 38.2386 27.2136 38.6434 27.2136 39.0637C27.2136 39.5381 27.3678 39.8145 27.7364 40.0004C27.9 40.083 29.6705 40.5873 31.6706 41.1211C34.1659 41.7869 35.3073 42.1378 35.3073 42.2389C35.3073 42.4515 30.8078 59.2516 30.7262 59.3437C30.6885 59.3861 29.0176 58.9801 27.0131 58.4413C25.0086 57.9027 23.1978 57.4619 22.9892 57.4619C22.0334 57.4619 21.6335 58.7647 22.411 59.3452C22.7037 59.5637 31.006 61.8347 31.5171 61.8361C31.6882 61.8366 31.9687 61.754 32.1403 61.6526C32.4702 61.4577 32.4474 61.4532 35.9214 62.4021C36.2478 62.4913 36.2643 62.5237 36.317 63.181C36.4528 64.8728 37.7944 66.1273 39.4917 66.1497L40.2308 66.1594L40.458 66.6188C40.9667 67.647 42.1189 68.34 43.3121 68.3354L44.0433 68.3326L44.2258 68.7373C44.679 69.7423 45.9122 70.5127 47.0979 70.5317L47.7868 70.5427L48.104 71.0981C48.7025 72.1459 49.6739 72.7044 50.8933 72.7018C51.7402 72.7 52.5415 72.418 53.0302 71.9499L53.308 71.684L53.8791 71.9011C56.0162 72.7131 58.2109 71.2811 58.3621 68.976L58.4139 68.1855L58.9797 67.8662C59.9679 67.3085 60.573 66.2258 60.573 65.0154V64.3683L64.0783 62.9781C67.1723 61.751 67.6158 61.6025 67.8569 61.7124C68.0072 61.7809 68.2631 61.8366 68.4258 61.8361C68.9262 61.8347 77.2289 59.5596 77.5161 59.3452C78.2897 58.7676 77.8941 57.4619 76.9455 57.4619C76.7411 57.4619 74.9302 57.9026 72.9213 58.441C70.9124 58.9796 69.2382 59.3857 69.2009 59.3434C69.1196 59.2516 64.6198 42.4471 64.6198 42.2356C64.6198 42.1355 65.6544 41.8146 67.8737 41.2259C71.9119 40.1552 72.2708 40.0389 72.5134 39.7236C72.7786 39.3789 72.7675 38.7474 72.4901 38.3948C72.0683 37.8585 71.8744 37.886 67.124 39.1556C63.2871 40.181 62.669 40.375 62.4262 40.6302L62.1467 40.924L60.7927 40.1724C58.5291 38.9161 57.5339 38.8249 55.0666 39.6481C53.0471 40.3218 52.0834 40.8326 51.1593 41.719C50.7244 42.1362 50.3541 42.4775 50.3363 42.4775C50.3186 42.4775 49.6491 42.0745 48.8487 41.5818C47.0847 40.4963 46.3559 40.1864 45.3721 40.104C44.4119 40.0235 44.18 40.0837 40.6255 41.3389C39.0087 41.9098 37.6653 42.3563 37.6401 42.3312C37.6149 42.306 37.6517 42.0577 37.7218 41.7795C37.869 41.1944 37.7275 40.7014 37.3414 40.4547C37.0785 40.2868 28.5656 37.9895 28.2452 38C28.129 38.0039 27.9285 38.0496 27.7995 38.1016ZM58.9601 41.6711C59.6894 42.0406 62.5717 43.67 62.6719 43.7697C62.7612 43.8585 66.9464 59.4374 66.8947 59.489C66.8315 59.5524 62.954 61.0713 62.8557 61.0713C62.8033 61.0713 62.7605 60.9536 62.7605 60.8096C62.7605 60.6183 62.8378 60.5287 63.0483 60.4758C63.2067 60.4361 63.6152 60.1232 63.9563 59.7804C64.4377 59.2964 64.6209 59.0139 64.7761 58.5159C65.1483 57.3221 64.8482 56.0855 63.9758 55.2182C63.575 54.8198 61.2567 53.4085 59.2955 52.3688C58.5145 51.9549 58.3563 51.9074 58.05 51.9952C57.57 52.1329 57.3085 52.3942 57.2295 52.8152C57.0964 53.5246 57.3145 53.7201 59.92 55.2266C61.2487 55.9947 62.436 56.7504 62.5585 56.9058C62.8625 57.2915 62.7758 57.9675 62.3783 58.3093C61.8314 58.7798 61.5261 58.6801 58.9273 57.1831C57.6168 56.4282 56.3749 55.783 56.1676 55.7493C55.6724 55.669 55.126 56.1287 55.0349 56.7023C54.9381 57.3119 55.3035 57.6256 57.7532 59.0359C60.2425 60.4692 60.2695 60.487 60.4458 60.818C60.8165 61.5142 60.2623 62.383 59.4467 62.3841C59.3142 62.3842 58.0916 61.7444 56.7298 60.9622C54.223 59.5224 53.8566 59.3805 53.3482 59.6527C52.7824 59.9554 52.6781 60.9283 53.1645 61.3652C53.2989 61.4859 54.4179 62.1638 55.6511 62.8717C56.8843 63.5795 57.9785 64.2336 58.0825 64.3253C58.3302 64.5433 58.4441 65.1758 58.2948 65.5036C58.2298 65.6461 58.0552 65.8424 57.9066 65.9398C57.3816 66.2838 57.0572 66.1868 55.2432 65.1444C53.4169 64.0948 52.8617 63.8817 52.0789 63.9298C51.6005 63.9592 51.5892 63.9519 51.2773 63.4057C50.6825 62.3643 49.7465 61.8128 48.4962 61.7674C47.7725 61.7411 47.7338 61.7259 47.6039 61.4171C47.3883 60.9043 46.6893 60.2036 46.0877 59.8972C45.6973 59.6984 45.2995 59.5998 44.7392 59.5631C43.9531 59.5116 43.9425 59.5068 43.7584 59.119C43.4988 58.5718 42.8164 57.9202 42.2143 57.6446C41.8394 57.4729 41.4901 57.4117 40.8855 57.4117C39.4547 57.4117 38.6525 57.9417 37.7643 59.4737C37.4651 59.9899 37.1478 60.4106 37.0573 60.4111C36.9671 60.4114 36.032 60.1738 34.9792 59.8832C33.2994 59.4194 33.0698 59.3291 33.1027 59.1466C33.1606 58.8246 36.8542 45.0525 36.8934 45.0122C36.9704 44.9331 44.2472 42.368 44.5776 42.3036C45.3159 42.1597 45.8524 42.3509 47.5536 43.3646L49.2076 44.3501L48.959 44.7536C48.8222 44.9756 48.2578 45.8875 47.7049 46.7801C46.6021 48.5603 46.4009 49.121 46.4944 50.1529C46.6039 51.36 47.3298 52.4113 48.4548 52.9916C49.1706 53.361 50.4737 53.4019 51.3308 53.0818C51.9356 52.8558 52.2258 52.6001 55.0352 49.8172C56.7116 48.1566 58.1468 46.6502 58.2245 46.4697C58.5259 45.7688 57.9928 44.9931 57.2098 44.9931C56.8419 44.9931 56.6293 45.1786 53.9096 47.8752C52.3108 49.4603 50.8809 50.8385 50.7322 50.9377C50.3979 51.1608 49.7265 51.1709 49.3166 50.9589C48.9127 50.75 48.609 50.1075 48.687 49.6268C48.7444 49.2733 51.3529 44.9258 52.1235 43.8994C52.8831 42.8877 53.6163 42.4467 55.7058 41.7446C57.364 41.1876 57.9778 41.1737 58.9601 41.6711ZM27.4323 54.2538C26.5768 54.5877 26.4465 55.8075 27.2235 56.2092C28.3512 56.7923 29.4058 55.3866 28.4878 54.5242C28.228 54.2802 27.7069 54.1466 27.4323 54.2538ZM71.8386 54.2538C70.9831 54.5877 70.8528 55.8075 71.6298 56.2092C72.7575 56.7923 73.812 55.3866 72.8941 54.5242C72.6343 54.2802 72.1131 54.1466 71.8386 54.2538ZM41.5648 59.857C42.1282 60.3603 42.0642 60.7555 41.1684 62.3073C40.3728 63.6854 40.0951 63.9588 39.4903 63.9588C38.9324 63.9588 38.4328 63.3859 38.5088 62.8331C38.582 62.2997 39.9897 59.8876 40.3386 59.6976C40.7786 59.4581 41.1762 59.5097 41.5648 59.857ZM45.4517 62.1097C45.9428 62.6805 45.7562 63.2572 44.3653 65.4676C43.9595 66.1127 43.5011 66.3022 42.9271 66.0625C42.0696 65.7042 42.0907 65.1051 43.0181 63.4716C43.8926 61.9313 44.1475 61.6815 44.7605 61.7637C45.0552 61.8032 45.2886 61.9201 45.4517 62.1097ZM48.9803 64.0971C49.3139 64.2942 49.5261 64.6601 49.5261 65.0383C49.5261 65.3266 48.2956 67.5709 47.9111 67.9839C47.3874 68.5464 46.6448 68.477 46.2407 67.8279C45.9403 67.3456 46.0079 67.0731 46.759 65.7376C47.7408 63.992 48.2125 63.6435 48.9803 64.0971ZM52.9398 66.4195C53.5056 66.9249 53.4407 67.3187 52.5352 68.8754C51.728 70.263 51.4661 70.5213 50.8653 70.5213C50.3035 70.5213 49.8083 69.949 49.8836 69.387C49.9591 68.8249 51.3289 66.4687 51.6964 66.2691C52.1537 66.0208 52.5468 66.0683 52.9398 66.4195ZM55.9263 68.2026C56.5187 68.9067 56.0318 69.9306 55.1045 69.9306C54.8708 69.9306 54.6569 69.8938 54.6291 69.8486C54.5699 69.7525 55.4527 67.8616 55.5593 67.8562C55.5991 67.8542 55.7642 68.0101 55.9263 68.2026Z" fill="white"/>
<circle cx="53" cy="27" r="1.25" stroke="white" stroke-width="1.5"/>
<circle cx="35" cy="74" r="1.25" stroke="white" stroke-width="1.5"/>
<circle cx="62" cy="33" r="1.25" stroke="white" stroke-width="1.5"/>
<circle cx="38" cy="33" r="2.25" stroke="white" stroke-width="1.5"/>
<path d="M48.5144 36.9928C47.7374 36.5911 47.8676 35.3713 48.7232 35.0374C48.9977 34.9302 49.5189 35.0637 49.7786 35.3078C50.6966 36.1702 49.642 37.5759 48.5144 36.9928Z" fill="white"/>
<path d="M65.5144 70.9928C64.7374 70.5911 64.8676 69.3713 65.7232 69.0374C65.9977 68.9302 66.5189 69.0637 66.7786 69.3078C67.6966 70.1702 66.642 71.5759 65.5144 70.9928Z" fill="white"/>
<path d="M55.5144 77.9928C54.7374 77.5911 54.8676 76.3713 55.7232 76.0374C55.9977 75.9302 56.5189 76.0637 56.7786 76.3078C57.6966 77.1702 56.642 78.5759 55.5144 77.9928Z" fill="white"/>
</svg>
